<svg id="visual" viewBox="0 0 1440 1440" width="1440" height="1440" xmlns="http://www.w3.org/2000/svg" xmlns:xlink="http://www.w3.org/1999/xlink" version="1.1"><rect x="0" y="0" width="1440" height="1440" fill="#8f9599"></rect><path d="M0 919L34.3 931.3C68.7 943.7 137.3 968.3 205.8 985.8C274.3 1003.3 342.7 1013.7 411.2 1021.7C479.7 1029.7 548.3 1035.3 617 1030.7C685.7 1026 754.3 1011 823 1003.3C891.7 995.7 960.3 995.3 1028.8 981.5C1097.3 967.7 1165.7 940.3 1234.2 932.2C1302.7 924 1371.3 935 1405.7 940.5L1440 946L1440 1441L1405.7 1441C1371.3 1441 1302.7 1441 1234.2 1441C1165.7 1441 1097.3 1441 1028.8 1441C960.3 1441 891.7 1441 823 1441C754.3 1441 685.7 1441 617 1441C548.3 1441 479.7 1441 411.2 1441C342.7 1441 274.3 1441 205.8 1441C137.3 1441 68.7 1441 34.3 1441L0 1441Z" fill="#fa7268"></path><path d="M0 957L34.3 959.8C68.7 962.7 137.3 968.3 205.8 985.5C274.3 1002.7 342.7 1031.3 411.2 1029C479.7 1026.7 548.3 993.3 617 987.2C685.7 981 754.3 1002 823 1024.2C891.7 1046.3 960.3 1069.7 1028.8 1070.7C1097.3 1071.7 1165.7 1050.3 1234.2 1048.3C1302.7 1046.3 1371.3 1063.7 1405.7 1072.3L1440 1081L1440 1441L1405.7 1441C1371.3 1441 1302.7 1441 1234.2 1441C1165.7 1441 1097.3 1441 1028.8 1441C960.3 1441 891.7 1441 823 1441C754.3 1441 685.7 1441 617 1441C548.3 1441 479.7 1441 411.2 1441C342.7 1441 274.3 1441 205.8 1441C137.3 1441 68.7 1441 34.3 1441L0 1441Z" fill="#ef5f67"></path><path d="M0 1137L34.3 1139.5C68.7 1142 137.3 1147 205.8 1158.5C274.3 1170 342.7 1188 411.2 1194.2C479.7 1200.3 548.3 1194.7 617 1182.7C685.7 1170.7 754.3 1152.3 823 1148.5C891.7 1144.7 960.3 1155.3 1028.8 1148.5C1097.3 1141.7 1165.7 1117.3 1234.2 1119.8C1302.7 1122.3 1371.3 1151.7 1405.7 1166.3L1440 1181L1440 1441L1405.7 1441C1371.3 1441 1302.7 1441 1234.2 1441C1165.7 1441 1097.3 1441 1028.8 1441C960.3 1441 891.7 1441 823 1441C754.3 1441 685.7 1441 617 1441C548.3 1441 479.7 1441 411.2 1441C342.7 1441 274.3 1441 205.8 1441C137.3 1441 68.7 1441 34.3 1441L0 1441Z" fill="#e34c67"></path><path d="M0 1215L34.3 1222C68.7 1229 137.3 1243 205.8 1240.7C274.3 1238.3 342.7 1219.7 411.2 1221.2C479.7 1222.7 548.3 1244.3 617 1252.2C685.7 1260 754.3 1254 823 1237.5C891.7 1221 960.3 1194 1028.8 1179.5C1097.3 1165 1165.7 1163 1234.2 1170.7C1302.7 1178.3 1371.3 1195.7 1405.7 1204.3L1440 1213L1440 1441L1405.7 1441C1371.3 1441 1302.7 1441 1234.2 1441C1165.7 1441 1097.3 1441 1028.8 1441C960.3 1441 891.7 1441 823 1441C754.3 1441 685.7 1441 617 1441C548.3 1441 479.7 1441 411.2 1441C342.7 1441 274.3 1441 205.8 1441C137.3 1441 68.7 1441 34.3 1441L0 1441Z" fill="#d53867"></path><path d="M0 1287L34.3 1298.2C68.7 1309.3 137.3 1331.7 205.8 1341C274.3 1350.3 342.7 1346.7 411.2 1344.8C479.7 1343 548.3 1343 617 1331.7C685.7 1320.3 754.3 1297.7 823 1295.8C891.7 1294 960.3 1313 1028.8 1311.3C1097.3 1309.7 1165.7 1287.3 1234.2 1284C1302.7 1280.7 1371.3 1296.3 1405.7 1304.2L1440 1312L1440 1441L1405.7 1441C1371.3 1441 1302.7 1441 1234.2 1441C1165.7 1441 1097.3 1441 1028.8 1441C960.3 1441 891.7 1441 823 1441C754.3 1441 685.7 1441 617 1441C548.3 1441 479.7 1441 411.2 1441C342.7 1441 274.3 1441 205.8 1441C137.3 1441 68.7 1441 34.3 1441L0 1441Z" fill="#c62368"></path></svg>